<?xml version="1.0" encoding="UTF-8" standalone="no"?>
<svg viewBox="0 0 952 129" version="1.1" xmlns="http://www.w3.org/2000/svg" xmlns:xlink="http://www.w3.org/1999/xlink" xmlns:sketch="http://www.bohemiancoding.com/sketch/ns">
    <g stroke="none" stroke-width="1" fill="none" fill-rule="evenodd">
        <g transform="translate(1.000000, 1.000000)" fill="#87AA14">
            <g>
                <path d="M204.5,125.8 L190.6,125.8 C188.9,125.8 187.9,124.8 187.9,123.3 L187.9,63.1 C187.9,52.7 184,49.4 174.2,49.4 C162,49.4 149.4,52.9 149.4,52.9 L149.4,123.3 C149.4,124.8 148.4,125.8 146.9,125.8 L133,125.8 C131.5,125.8 130.3,124.8 130.3,123.3 L130.3,52.1 C130.3,45.6 132.5,43.2 141.5,40.4 C150,37.9 165.1,35.7 175.8,35.7 C196.2,35.7 207,41.4 207,60.6 L207,123.3 C207.1,124.8 206.1,125.8 204.5,125.8"></path>
                <path d="M294.5,124.5 C288,126.2 279.4,128 267.5,128 C234.8,128 225.5,115.3 225.5,82.1 C225.5,51.5 233.7,35.7 263.3,35.7 C274.9,35.7 283.6,37.9 287.6,38.9 L286,29 L286,5.5 C286,3.7 286.8,2.8 288.5,2.5 L302.1,-0.2 L302.8,-0.2 C304.1,-0.2 305,0.8 305,2.3 L305,111.4 C304.9,116.6 304.6,121.8 294.5,124.5 L294.5,124.5 Z M286,51.7 C286,51.7 276.8,49.4 267.4,49.4 C251.5,49.4 245,53.6 245,81.6 C245,111.1 252.7,114.3 267.9,114.3 C277.6,114.3 286,112 286,112 L286,51.7 L286,51.7 Z"></path>
                <path d="M364.2,128 C327.8,128 323.3,107.4 323.3,81.9 C323.3,56.3 327.8,35.7 364.2,35.7 C400.5,35.7 404.9,56.3 404.9,81.9 C404.9,107.4 400.5,128 364.2,128 M364.2,49.4 C343.8,49.4 342.9,61.3 342.9,81.9 C342.9,102.3 343.7,114.2 364.2,114.2 C384.5,114.2 385.3,102.3 385.3,81.9 C385.3,61.3 384.5,49.4 364.2,49.4"></path>
                <path d="M555.7,125.8 L542,125.8 C540.3,125.8 539.3,124.8 539.3,123.3 L539.3,63.1 C539.3,52.7 535.1,49.4 525.2,49.4 C513,49.4 500.4,52.9 500.4,52.9 L500.4,123.3 C500.4,124.8 499.4,125.8 497.9,125.8 L484,125.8 C482.5,125.8 481.5,124.8 481.5,123.3 L481.5,63.1 C481.5,52.7 477.5,49.4 467.6,49.4 C455.4,49.4 442.5,52.9 442.5,52.9 L442.5,123.3 C442.5,124.8 441.5,125.8 440,125.8 L426,125.8 C424.5,125.8 423.3,124.8 423.3,123.3 L423.3,52.1 C423.3,45.6 425.5,43.2 434.5,40.4 C443,37.9 458.3,35.7 469,35.7 C479.6,35.7 486.9,37.9 491.6,41.7 C498.1,39.2 514.7,35.7 527.1,35.7 C547.5,35.7 558.1,41.4 558.1,60.6 L558.1,123.3 C558.2,124.8 557.3,125.8 555.7,125.8"></path>
                <path d="M616.8,128 C580.5,128 575.9,107.4 575.9,81.9 C575.9,56.3 580.4,35.7 616.8,35.7 C653.2,35.7 657.5,56.3 657.5,81.9 C657.5,107.4 653.1,128 616.8,128 M616.8,49.4 C596.4,49.4 595.5,61.3 595.5,81.9 C595.5,102.3 596.3,114.2 616.8,114.2 C637.1,114.2 637.9,102.3 637.9,81.9 C637.9,61.3 637.1,49.4 616.8,49.4"></path>
                <path d="M750.1,125.8 L736.2,125.8 C734.5,125.8 733.5,124.8 733.5,123.3 L733.5,63.1 C733.5,52.7 729.6,49.4 719.8,49.4 C707.6,49.4 695,52.9 695,52.9 L695,123.3 C695,124.8 694,125.8 692.5,125.8 L678.6,125.8 C677.1,125.8 675.9,124.8 675.9,123.3 L675.9,52.1 C675.9,45.6 678.1,43.2 687.1,40.4 C695.6,37.9 710.7,35.7 721.4,35.7 C741.8,35.7 752.6,41.4 752.6,60.6 L752.6,123.3 C752.7,124.8 751.7,125.8 750.1,125.8"></path>
                <path d="M840.1,124.5 C833.6,126.2 825,128 813.1,128 C780.4,128 771,115.3 771,82.1 C771,51.5 779.2,35.7 808.9,35.7 C820.5,35.7 829.2,37.9 833.2,38.9 L831.5,29 L831.5,5.5 C831.5,3.7 832.3,2.8 834,2.5 L847.6,-0.2 L848.3,-0.2 C849.6,-0.2 850.5,0.8 850.5,2.3 L850.5,111.4 C850.5,116.6 850.2,121.8 840.1,124.5 L840.1,124.5 Z M831.6,51.7 C831.6,51.7 822.4,49.4 813,49.4 C797.1,49.4 790.6,53.6 790.6,81.6 C790.6,111.1 798.3,114.3 813.6,114.3 C823.3,114.3 831.7,112 831.7,112 L831.7,51.7 L831.6,51.7 Z"></path>
                <path d="M909.8,128 C873.4,128 868.9,107.4 868.9,81.9 C868.9,56.3 873.4,35.7 909.8,35.7 C946.2,35.7 950.5,56.3 950.5,81.9 C950.5,107.4 946.1,128 909.8,128 M909.8,49.4 C889.4,49.4 888.5,61.3 888.5,81.9 C888.5,102.3 889.3,114.2 909.8,114.2 C930.1,114.2 930.9,102.3 930.9,81.9 C930.9,61.3 930.1,49.4 909.8,49.4"></path>
                <path d="M21.3,61.2 C21.3,58.9 19.7,57 17.5,56.4 L3.2,56.4 C1.1,56.9 -0.5,58.9 -0.5,61.2 C-0.5,63.9 1.7,66.1 4.4,66.1 L16.3,66.1 C19.1,66.1 21.3,63.9 21.3,61.2 M107.2,48.6 C101.3,39.8 91,35.1 73.7,35.1 C71.2,35.1 68.8,35.2 66.6,35.4 C66.2,35.4 65.8,35.4 65.4,35.5 L65.2,35.5 C65,35.5 64.9,35.5 64.7,35.6 C55.7,36.7 50.6,36.7 50.6,36.7 L27.3,36.7 C24.6,36.7 22.4,38.9 22.4,41.6 C22.4,44.3 24.6,46.5 27.3,46.5 L48.3,46.5 C51,46.5 53.2,48.7 53.2,51.4 C53.2,53.7 51.6,55.7 49.5,56.2 C49.1,56.3 48.7,56.4 48.3,56.4 L30.3,56.4 C28.2,56.9 26.6,58.9 26.6,61.2 C26.6,63.9 28.8,66.1 31.6,66.1 L36,66.1 C38.7,66.1 40.9,68.3 40.9,71 C40.9,73.7 38.7,75.9 36,75.9 L13.4,75.9 C10.7,75.9 8.5,78.1 8.5,80.9 C8.5,83.6 10.7,85.8 13.4,85.8 L34.8,85.8 C37.5,85.8 39.7,88 39.7,90.7 C39.7,93.4 37.5,95.6 34.8,95.6 L32.4,95.6 C29.7,95.6 27.5,97.8 27.5,100.6 C27.5,103.3 29.7,105.5 32.4,105.5 L42,105.5 C44.7,105.5 46.9,107.7 46.9,110.4 C46.9,113.1 44.7,115.4 42,115.4 L40,115.4 C37,115.4 34.6,117.8 34.6,120.7 C34.6,123.7 37,126.1 40,126.1 L51,126.1 C51,126.1 57.6,126.3 64.7,127 C66.2,127.2 67.6,127.4 69.2,127.6 L69.2,127.6 C69.8,127.7 70.2,127.7 70.6,127.7 C72.9,127.8 75.2,127.9 77.8,127.9 C90.3,127.9 101.6,125.2 107.9,122.7 C108.9,122.2 109.7,121.5 109.7,120.3 C109.7,120.1 109.7,119.8 109.5,119.6 L107.5,111.8 C107,110.3 106.3,109.8 105.3,109.8 C105.1,109.8 104.8,109.8 104.5,110 C98.3,111.7 91,114 80.3,114 C70.2,114 63.2,112.5 58.5,107.9 C54.4,104 52.4,99.3 52.3,91 L111,91 C112.8,91 113.9,89.3 113.9,87.8 C114.1,85.3 114.1,81.9 114.1,79.7 C114.1,66.8 112.6,56.2 107.2,48.6 M94.6,83.1 C89.5,83.1 85.3,79 85.3,73.8 C85.3,68.7 89.4,64.6 94.6,64.6 C98.8,64.6 102.3,67.4 103.4,71.2 C102.7,70.5 101.8,70 100.7,70 C98.6,70 96.9,71.7 96.9,73.8 C96.9,75.9 98.6,77.6 100.7,77.6 C101.8,77.6 102.7,77.1 103.4,76.4 C102.3,80.3 98.8,83.1 94.6,83.1"></path>
            </g>
        </g>
    </g>
</svg>
